<svg width="105" height="19" viewBox="0 0 105 19" fill="none" xmlns="http://www.w3.org/2000/svg">
<g clip-path="url(#clip0_95_2)">
<path fill-rule="evenodd" clip-rule="evenodd" d="M10.8373 14.5721L5.08748 18.3786L6.86825 11.7169L1.47133 7.42473L8.35726 7.05976L10.7716 0.600652L13.2466 7.03677L20.1356 7.33697L14.7793 11.6797L16.6226 18.3243L10.8373 14.5721Z" fill="#FFC54F"/>
</g>
<g clip-path="url(#clip1_95_2)">
<path fill-rule="evenodd" clip-rule="evenodd" d="M31.889 14.473L26.1392 18.2794L27.9199 11.6178L22.523 7.3256L29.409 6.96064L31.8233 0.501531L34.2983 6.93765L41.1873 7.23785L35.831 11.5806L37.6743 18.2252L31.889 14.473Z" fill="#FFC54F"/>
</g>
<g clip-path="url(#clip2_95_2)">
<path fill-rule="evenodd" clip-rule="evenodd" d="M52.9407 14.3744L47.1909 18.1808L48.9716 11.5191L43.5747 7.22697L50.4607 6.86201L52.875 0.402898L55.35 6.83902L62.239 7.13921L56.8827 11.4819L58.726 18.1266L52.9407 14.3744Z" fill="#FFC54F"/>
</g>
<g clip-path="url(#clip3_95_2)">
<path fill-rule="evenodd" clip-rule="evenodd" d="M73.9924 14.2753L68.2426 18.0817L70.0234 11.42L64.6265 7.12785L71.5124 6.76289L73.9267 0.303777L76.4017 6.7399L83.2908 7.04009L77.9345 11.3828L79.7778 18.0274L73.9924 14.2753Z" fill="#FFC54F"/>
</g>
<g clip-path="url(#clip4_95_2)">
<path fill-rule="evenodd" clip-rule="evenodd" d="M95.0441 14.1761L89.2943 17.9826L91.0751 11.3209L85.6782 7.02873L92.5641 6.66377L94.9784 0.204656L97.4534 6.64078L104.342 6.94097L98.9862 11.2837L100.829 17.9283L95.0441 14.1761Z" fill="#FFC54F"/>
</g>
<defs>
<clipPath id="clip0_95_2">
<rect width="19.625" height="17.9896" fill="white" transform="translate(0.959229 0.646973) rotate(-0.269398)"/>
</clipPath>
<clipPath id="clip1_95_2">
<rect width="19.625" height="17.9896" fill="white" transform="translate(22.0109 0.547852) rotate(-0.269398)"/>
</clipPath>
<clipPath id="clip2_95_2">
<rect width="19.625" height="17.9896" fill="white" transform="translate(43.0626 0.449219) rotate(-0.269398)"/>
</clipPath>
<clipPath id="clip3_95_2">
<rect width="19.625" height="17.9896" fill="white" transform="translate(64.1144 0.350098) rotate(-0.269398)"/>
</clipPath>
<clipPath id="clip4_95_2">
<rect width="19.625" height="17.9896" fill="white" transform="translate(85.1661 0.250977) rotate(-0.269398)"/>
</clipPath>
</defs>
</svg>
